# xmcd
#
# Track frame offsets:
#	150
#	10378
#	23332
#	34664
#	43698
#	54377
#	64532
#	74291
#	84552
#	96659
#	106750
#	116432
#	126726
#	139327
#	148442
#	158397
#	169316
#	181819
#	194708
#	206756
#	220786
#	232202
#	246586
#	256393
#	267322
#	278967
#
# Disc length: 3852 seconds
#
# Revision: 0
# Processed by: cddbd v1.5.2PL0 Copyright (c) Steve Scherf et al.
# Submitted via: EasyCDDAExtractor 2010.6.0.0
#
DISCID=920f0a1a
DTITLE=Dean Jimmy - Find 'em Fool 'em Leave 'em Alone
DYEAR=1900
DGENRE=
TTITLE0=There Stands The Glass
TTITLE1=Paper Love Affair
TTITLE2=Big Blue Diamonds
TTITLE3=Find 'em Fool 'em Leave 'em Alone
TTITLE4=Glad Rags
TTITLE5=Hello Mr. Blues
TTITLE6=Do You Love Me
TTITLE7=Fool In Love
TTITLE8=My World Is You
TTITLE9=Freight Train Blues
TTITLE10=I've Found Out What I've Been Thinking
TTITLE11=Happy Child
TTITLE12=Losing Game
TTITLE13=Look On The Good Side
TTITLE14=Nothing Can Stop My Love
TTITLE15=What This Old World Needs
TTITLE16=Picking Sweethearts
TTITLE17=Bumming Around
TTITLE18=I'm Feeling For You
TTITLE19=Queen Of Hearts
TTITLE20=Sweet Darling
TTITLE21=Release Me
TTITLE22=I Might Have Known
TTITLE23=I Know What It Means To Be Lonesome
TTITLE24=You Should See Tennessee Mam'selle
TTITLE25=My Heart Is An Open Book
EXTD=
EXTT0=
EXTT1=
EXTT2=
EXTT3=
EXTT4=
EXTT5=
EXTT6=
EXTT7=
EXTT8=
EXTT9=
EXTT10=
EXTT11=
EXTT12=
EXTT13=
EXTT14=
EXTT15=
EXTT16=
EXTT17=
EXTT18=
EXTT19=
EXTT20=
EXTT21=
EXTT22=
EXTT23=
EXTT24=
EXTT25=
PLAYORDER=
